<svg width="160.000000" height="160.573486" viewBox="0 0 160 160.573" fill="none" xmlns="http://www.w3.org/2000/svg" xmlns:xlink="http://www.w3.org/1999/xlink">
	<desc>
			Created with Pixso.
	</desc>
	<defs>
		<clipPath id="clip2_77">
			<rect id="svg" width="160.000000" height="160.573486" fill="white" fill-opacity="0"/>
		</clipPath>
	</defs>
	<g clip-path="url(#clip2_77)">
		<path id="path" d="M80 21.4C85.89 21.4 90.66 16.61 90.66 10.7C90.66 4.79 85.89 0 80 0C74.1 0 69.33 4.79 69.33 10.7C69.33 16.61 74.1 21.4 80 21.4ZM80 5.35C82.94 5.35 85.33 7.74 85.33 10.7C85.33 13.66 82.94 16.05 80 16.05C77.05 16.05 74.66 13.66 74.66 10.7C74.66 7.74 77.05 5.35 80 5.35Z" fill="#000000" fill-opacity="1.000000" fill-rule="nonzero"/>
		<path id="path" d="M130.66 50.84C136.55 50.84 141.33 46.05 141.33 40.14C141.33 34.23 136.55 29.43 130.66 29.43C124.77 29.43 120 34.23 120 40.14C120 46.05 124.77 50.84 130.66 50.84ZM130.66 34.79C133.61 34.79 136 37.18 136 40.14C136 43.09 133.61 45.49 130.66 45.49C127.72 45.49 125.33 43.09 125.33 40.14C125.33 37.18 127.72 34.79 130.66 34.79Z" fill="#000000" fill-opacity="1.000000" fill-rule="nonzero"/>
		<path id="path" d="M153.33 85.63C157.01 85.63 160 82.64 160 78.94L160 58.87C160 54.44 156.41 50.84 152 50.84L135.37 50.84L130.66 53.2L125.96 50.84L109.33 50.84C104.91 50.84 101.33 54.44 101.33 58.87L101.33 78.94C101.33 82.64 104.31 85.63 108 85.63C111.68 85.63 114.66 82.64 114.66 78.94L114.66 64.22L117.33 64.22L117.33 117.75L106.66 117.75L106.66 96.34L93.33 96.34L93.33 64.22L96 64.22L96 34.79L104 34.79C111.36 34.78 117.32 28.79 117.33 21.4L117.33 6.69C117.33 2.99 114.34 0 110.66 0C106.98 0 104 2.99 104 6.69L104 18.73C104 20.21 102.8 21.4 101.33 21.4L87.2 21.4L80 26.22L72.79 21.4L58.66 21.4C57.19 21.4 56 20.21 56 18.73L56 6.69C56 2.99 53.01 0 49.33 0C45.65 0 42.66 2.99 42.66 6.69L42.66 21.4C42.67 28.79 48.63 34.78 56 34.79L64 34.79L64 64.22L66.66 64.22L66.66 96.34L53.33 96.34L53.33 117.75L42.66 117.75L42.66 64.22L45.33 64.22L45.33 78.94C45.33 82.64 48.31 85.63 52 85.63C55.68 85.63 58.66 82.64 58.66 78.94L58.66 58.87C58.66 54.44 55.08 50.84 50.66 50.84L34.03 50.84L29.33 53.2L24.62 50.84L8 50.84C3.58 50.84 0 54.44 0 58.87L0 78.94C0 82.64 2.98 85.63 6.66 85.63C10.34 85.63 13.33 82.64 13.33 78.94L13.33 64.22L16 64.22L16 117.75L0 117.75L0 160.57L160 160.57L160 117.75L144 117.75L144 64.22L146.66 64.22L146.66 78.94C146.66 82.64 149.65 85.63 153.33 85.63ZM122.66 88.31L128 88.31L128 117.75L122.66 117.75L122.66 88.31ZM88 96.34L82.66 96.34L82.66 64.22L88 64.22L88 96.34ZM56 29.43C51.58 29.43 48 25.84 48 21.4L48 6.69C48 5.95 48.59 5.35 49.33 5.35C50.07 5.35 50.66 5.95 50.66 6.69L50.66 18.73C50.66 23.16 54.24 26.76 58.66 26.76L71.2 26.76L80 32.65L88.79 26.76L101.33 26.76C105.75 26.76 109.33 23.16 109.33 18.73L109.33 6.69C109.33 5.95 109.93 5.35 110.66 5.35C111.4 5.35 112 5.95 112 6.69L112 21.4C112 25.84 108.41 29.43 104 29.43L90.66 29.43L90.66 58.87L69.33 58.87L69.33 29.43L56 29.43ZM72 64.22L77.33 64.22L77.33 96.34L72 96.34L72 64.22ZM37.33 117.75L32 117.75L32 88.31L37.33 88.31L37.33 117.75ZM13.33 58.87C10.38 58.87 8 61.27 8 64.22L8 78.94C8 79.68 7.4 80.28 6.66 80.28C5.92 80.28 5.33 79.68 5.33 78.94L5.33 58.87C5.33 57.39 6.52 56.2 8 56.2L23.37 56.2L29.33 59.19L35.29 56.2L50.66 56.2C52.13 56.2 53.33 57.39 53.33 58.87L53.33 78.94C53.33 79.68 52.73 80.28 52 80.28C51.26 80.28 50.66 79.68 50.66 78.94L50.66 64.22C50.66 61.27 48.27 58.87 45.33 58.87L37.33 58.87L37.33 82.96L21.33 82.96L21.33 58.87L13.33 58.87ZM21.33 88.31L26.66 88.31L26.66 117.75L21.33 117.75L21.33 88.31ZM53.33 155.22L5.33 155.22L5.33 123.1L53.33 123.1L53.33 155.22ZM101.33 155.22L58.66 155.22L58.66 101.69L101.33 101.69L101.33 155.22ZM154.66 123.1L154.66 155.22L106.66 155.22L106.66 123.1L154.66 123.1ZM138.66 117.75L133.33 117.75L133.33 88.31L138.66 88.31L138.66 117.75ZM138.66 58.87L138.66 82.96L122.66 82.96L122.66 58.87L114.66 58.87C111.72 58.87 109.33 61.27 109.33 64.22L109.33 78.94C109.33 79.68 108.73 80.28 108 80.28C107.26 80.28 106.66 79.68 106.66 78.94L106.66 58.87C106.66 57.39 107.86 56.2 109.33 56.2L124.7 56.2L130.66 59.19L136.62 56.2L152 56.2C153.47 56.2 154.66 57.39 154.66 58.87L154.66 78.94C154.66 79.68 154.07 80.28 153.33 80.28C152.59 80.28 152 79.68 152 78.94L152 64.22C152 61.27 149.61 58.87 146.66 58.87L138.66 58.87Z" fill="#000000" fill-opacity="1.000000" fill-rule="nonzero"/>
		<path id="path" d="M29.33 50.84C35.22 50.84 40 46.05 40 40.14C40 34.23 35.22 29.43 29.33 29.43C23.44 29.43 18.66 34.23 18.66 40.14C18.66 46.05 23.44 50.84 29.33 50.84ZM29.33 34.79C32.27 34.79 34.66 37.18 34.66 40.14C34.66 43.09 32.27 45.49 29.33 45.49C26.38 45.49 24 43.09 24 40.14C24 37.18 26.38 34.79 29.33 34.79Z" fill="#000000" fill-opacity="1.000000" fill-rule="nonzero"/>
		<path id="path" d="M152 139.16L146.66 139.16L146.66 147.19L138.66 147.19L138.66 152.54L152 152.54L152 139.16Z" fill="#000000" fill-opacity="1.000000" fill-rule="nonzero"/>
		<path id="path" d="M37.33 152.54L50.66 152.54L50.66 139.16L45.33 139.16L45.33 147.19L37.33 147.19L37.33 152.54Z" fill="#000000" fill-opacity="1.000000" fill-rule="nonzero"/>
		<path id="path" d="M85.33 109.72L93.33 109.72L93.33 117.75L98.66 117.75L98.66 104.37L85.33 104.37L85.33 109.72Z" fill="#000000" fill-opacity="1.000000" fill-rule="nonzero"/>
	</g>
</svg>
