<svg width="159.000000" height="161.336426" viewBox="0 0 159 161.336" fill="none" xmlns="http://www.w3.org/2000/svg" xmlns:xlink="http://www.w3.org/1999/xlink">
	<desc>
			Created with Pixso.
	</desc>
	<defs>
		<clipPath id="clip2_87">
			<rect id="svg" width="159.000000" height="161.336533" fill="white" fill-opacity="0"/>
		</clipPath>
	</defs>
	<g clip-path="url(#clip2_87)">
		<path id="path" d="M140.45 118.31L92.75 118.31C91.28 118.31 90.1 119.51 90.1 121C90.1 122.48 91.28 123.69 92.75 123.69L119.2 123.69C113.76 136.51 101.19 145.2 87.45 145.2L60.95 145.2C41.95 145.2 26.5 129.52 26.5 110.24L26.5 61.84C26.5 42.57 41.95 26.88 60.95 26.88L82.15 26.88C83.61 26.88 84.8 25.68 84.8 24.2C84.8 22.71 83.61 21.51 82.15 21.51L60.95 21.51C39.03 21.51 21.2 39.6 21.2 61.84L21.2 110.24C21.2 126.29 30.51 140.14 43.91 146.63C27.83 148.2 18.48 150.51 17.9 150.66C16.72 150.96 15.9 152.03 15.9 153.27L15.9 158.64C15.9 160.13 17.08 161.33 18.54 161.33C20.01 161.33 21.19 160.13 21.19 158.64L21.19 155.42C27.22 154.14 46.45 150.58 74.19 150.58C101.94 150.58 121.17 154.14 127.2 155.42L127.2 158.64C127.2 160.13 128.38 161.33 129.85 161.33C131.31 161.33 132.5 160.13 132.5 158.64L132.5 153.27C132.5 152.03 131.67 150.96 130.49 150.66C129.91 150.51 120.51 148.18 104.33 146.62C113.66 142.07 121.21 133.91 124.89 123.69L140.45 123.69C141.91 123.69 143.1 122.48 143.1 121C143.1 119.51 141.91 118.31 140.45 118.31Z" fill="#000000" fill-opacity="1.000000" fill-rule="nonzero"/>
		<path id="path" d="M60.95 43.02L82.15 43.02C83.61 43.02 84.8 41.81 84.8 40.33C84.8 38.84 83.61 37.64 82.15 37.64L60.95 37.64C47.79 37.64 37.1 48.5 37.1 61.84L37.1 110.24C37.1 123.58 47.8 134.44 60.95 134.44L98.05 134.44C99.51 134.44 100.7 133.24 100.7 131.75C100.7 130.27 99.51 129.07 98.05 129.07L60.95 129.07C50.72 129.07 42.4 120.62 42.4 110.24L42.4 61.84C42.39 51.46 50.72 43.02 60.95 43.02Z" fill="#000000" fill-opacity="1.000000" fill-rule="nonzero"/>
		<path id="path" d="M106 34.95L106 67.22C106 68.7 107.18 69.91 108.65 69.91C110.11 69.91 111.3 68.7 111.3 67.22L111.3 34.95C111.3 33.47 110.11 32.26 108.65 32.26C107.18 32.26 106 33.47 106 34.95Z" fill="#000000" fill-opacity="1.000000" fill-rule="nonzero"/>
		<path id="path" d="M137.8 11.18L137.8 2.68C137.8 1.97 137.52 1.29 137.02 0.78C136.52 0.28 135.85 0 135.14 0L98.04 0C96.58 0 95.4 1.2 95.4 2.68C95.4 4.17 96.58 5.37 98.04 5.37L132.5 5.37L132.5 13.44C132.5 14.15 132.77 14.84 133.27 15.34C133.77 15.85 134.44 16.13 135.14 16.13C136.75 16.13 137.8 17.19 137.8 18.82L137.8 77.97C137.8 82.57 134.38 86.04 129.85 86.04L103.35 86.04C98.96 86.04 95.4 82.42 95.4 77.97L95.4 18.82C95.4 17.36 96.61 16.13 98.04 16.13L119.25 16.13C120.71 16.13 121.9 14.92 121.9 13.44C121.9 11.96 120.71 10.75 119.25 10.75L98.04 10.75C93.66 10.75 90.09 14.37 90.09 18.82L90.09 77.97C90.09 85.39 96.04 91.42 103.35 91.42L106 91.42L106 99.49C106 100.97 107.18 102.18 108.65 102.18L124.55 102.18C126.01 102.18 127.2 100.97 127.2 99.49L127.2 91.42L129.85 91.42C137.28 91.42 143.1 85.51 143.1 77.97L143.1 18.82C143.1 15.17 140.95 12.24 137.8 11.18ZM121.9 96.8L111.3 96.8L111.3 91.42L121.9 91.42L121.9 96.8Z" fill="#000000" fill-opacity="1.000000" fill-rule="nonzero"/>
		<path id="path" d="M124.55 69.91C126.01 69.91 127.2 68.7 127.2 67.22L127.2 34.95C127.2 33.47 126.01 32.26 124.55 32.26C123.08 32.26 121.9 33.47 121.9 34.95L121.9 67.22C121.9 68.7 123.08 69.91 124.55 69.91Z" fill="#000000" fill-opacity="1.000000" fill-rule="nonzero"/>
	</g>
</svg>
