<svg width="160.000000" height="160.000000" viewBox="0 0 160 160" fill="none" xmlns="http://www.w3.org/2000/svg" xmlns:xlink="http://www.w3.org/1999/xlink">
	<desc>
			Created with Pixso.
	</desc>
	<defs>
		<clipPath id="clip2_207">
			<rect id="svg" width="160.000000" height="160.000000" fill="white" fill-opacity="0"/>
		</clipPath>
	</defs>
	<g clip-path="url(#clip2_207)">
		<path id="path" d="M152 144C151.53 144 151.08 144.03 150.62 144.12C148.78 140.8 145.28 138.66 141.33 138.66C137.37 138.66 133.87 140.8 132.03 144.12C131.58 144.03 131.12 144 130.66 144C126.25 144 122.66 147.59 122.66 152C122.66 152.93 122.85 153.82 123.16 154.66L112 154.66L112 138.66L125.33 138.66C126.8 138.66 128 137.47 128 136L128 29.33C128 27.86 126.8 26.66 125.33 26.66L45.33 26.66C43.86 26.66 42.66 27.86 42.66 29.33L42.66 157.33C42.66 158.8 43.86 160 45.33 160L152 160C156.41 160 160 156.41 160 152C160 147.59 156.41 144 152 144ZM112 32L122.66 32L122.66 48L112 48L112 32ZM112 53.33L122.66 53.33L122.66 69.33L112 69.33L112 53.33ZM112 74.66L122.66 74.66L122.66 90.66L112 90.66L112 74.66ZM112 96L122.66 96L122.66 112L112 112L112 96ZM112 117.33L122.66 117.33L122.66 133.33L112 133.33L112 117.33ZM58.66 154.66L48 154.66L48 138.66L58.66 138.66L58.66 154.66ZM58.66 133.33L48 133.33L48 117.33L58.66 117.33L58.66 133.33ZM58.66 112L48 112L48 96L58.66 96L58.66 112ZM58.66 90.66L48 90.66L48 74.66L58.66 74.66L58.66 90.66ZM58.66 69.33L48 69.33L48 53.33L58.66 53.33L58.66 69.33ZM58.66 48L48 48L48 32L58.66 32L58.66 48ZM74.66 154.66L64 154.66L64 138.66L74.66 138.66L74.66 154.66ZM74.66 133.33L64 133.33L64 117.33L74.66 117.33L74.66 133.33ZM74.66 112L64 112L64 96L74.66 96L74.66 112ZM74.66 90.66L64 90.66L64 74.66L74.66 74.66L74.66 90.66ZM74.66 69.33L64 69.33L64 53.33L74.66 53.33L74.66 69.33ZM74.66 48L64 48L64 32L74.66 32L74.66 48ZM90.66 154.66L80 154.66L80 138.66L90.66 138.66L90.66 154.66ZM90.66 133.33L80 133.33L80 117.33L90.66 117.33L90.66 133.33ZM90.66 112L80 112L80 96L90.66 96L90.66 112ZM90.66 90.66L80 90.66L80 74.66L90.66 74.66L90.66 90.66ZM90.66 69.33L80 69.33L80 53.33L90.66 53.33L90.66 69.33ZM90.66 48L80 48L80 32L90.66 32L90.66 48ZM106.66 154.66L96 154.66L96 138.66L106.66 138.66L106.66 154.66ZM106.66 133.33L96 133.33L96 117.33L106.66 117.33L106.66 133.33ZM106.66 112L96 112L96 96L106.66 96L106.66 112ZM106.66 90.66L96 90.66L96 74.66L106.66 74.66L106.66 90.66ZM106.66 69.33L96 69.33L96 53.33L106.66 53.33L106.66 69.33ZM106.66 48L96 48L96 32L106.66 32L106.66 48ZM152 154.66L130.66 154.66C129.19 154.66 128 153.46 128 152C128 150.53 129.19 149.33 130.66 149.33C131.17 149.33 131.66 149.48 132.11 149.76C132.84 150.23 133.75 150.32 134.56 149.99C135.36 149.67 135.96 148.97 136.15 148.12C136.71 145.69 138.84 144 141.33 144C143.81 144 145.94 145.69 146.51 148.12C146.7 148.97 147.3 149.67 148.1 149.99C148.91 150.32 149.82 150.23 150.55 149.76C152.28 148.64 154.67 150.01 154.66 152C154.66 153.46 153.46 154.66 152 154.66Z" fill="#000000" fill-opacity="1.000000" fill-rule="nonzero"/>
		<path id="path" d="M58.66 18.66L58.66 10.66L77.33 10.66C78.8 10.66 79.99 9.47 79.99 8L79.99 5.33L90.66 5.33L90.66 8C90.66 9.47 91.86 10.66 93.33 10.66L112 10.66L112 16L66.66 16C65.19 16 64 17.19 64 18.66C64 20.13 65.19 21.33 66.66 21.33L133.33 21.33L133.33 131.94C133.33 133.41 134.52 134.61 136 134.61C137.47 134.61 138.66 133.41 138.66 131.94L138.66 18.66C138.66 17.19 137.47 16 136 16L117.33 16L117.33 8C117.33 6.52 116.13 5.33 114.66 5.33L96 5.33L96 2.66C96 1.19 94.8 0 93.33 0L77.33 0C75.86 0 74.66 1.19 74.66 2.66L74.66 5.33L56 5.33C54.52 5.33 53.33 6.52 53.33 7.99L53.33 15.99L34.66 15.99C33.19 15.99 32 17.19 32 18.66L32 154.66L16 154.66L16 143.73C22.07 142.49 26.66 137.1 26.66 130.66C26.66 130.32 26.51 95.99 13.33 95.99C0.15 96 0 130.32 0 130.66C0 137.1 4.58 142.49 10.66 143.73L10.66 154.66L2.66 154.66C1.19 154.66 0 155.86 0 157.33C0 158.8 1.19 160 2.66 160L34.66 160C36.13 160 37.33 158.8 37.33 157.33L37.33 21.33L56 21.33C57.47 21.33 58.66 20.13 58.66 18.66ZM5.33 130.66C5.33 117.38 8.9 101.33 13.33 101.33C17.76 101.33 21.33 117.38 21.33 130.66C21.33 135.07 17.74 138.66 13.33 138.66C8.92 138.66 5.33 135.07 5.33 130.66Z" fill="#000000" fill-opacity="1.000000" fill-rule="nonzero"/>
	</g>
</svg>
