<svg width="160.000000" height="160.000000" viewBox="0 0 160 160" fill="none" xmlns="http://www.w3.org/2000/svg" xmlns:xlink="http://www.w3.org/1999/xlink">
	<desc>
			Created with Pixso.
	</desc>
	<defs>
		<clipPath id="clip2_228">
			<rect id="svg" width="160.000000" height="160.000000" fill="white" fill-opacity="0"/>
		</clipPath>
	</defs>
	<g clip-path="url(#clip2_228)">
		<path id="path" d="M66.66 74.66L82.66 74.66C84.13 74.66 85.33 73.47 85.33 71.99C85.33 70.52 84.13 69.33 82.66 69.33L66.66 69.33C65.19 69.33 64 70.52 64 71.99C64 73.47 65.19 74.66 66.66 74.66Z" fill="#000000" fill-opacity="1.000000" fill-rule="nonzero"/>
		<path id="path" d="M146.66 21.33L66.66 21.33C65.19 21.33 63.99 22.52 63.99 24C63.99 25.47 65.19 26.66 66.66 26.66L144 26.66L144 146.66C144 150.92 140.26 154.66 136 154.66L23.99 154.66C19.73 154.66 15.99 150.92 15.99 146.66L15.99 24.22C17.71 25.37 19.61 26.05 21.33 26.39L21.33 146.66C21.33 148.13 22.52 149.33 23.99 149.33C25.47 149.33 26.66 148.13 26.66 146.66L26.66 24C26.66 22.53 25.47 21.34 24.01 21.33C22.67 21.31 15.99 20.86 15.99 13.33L15.99 10.66C15.99 7.72 18.39 5.33 21.33 5.33L146.66 5.33C148.13 5.33 149.33 4.13 149.33 2.66C149.33 1.19 148.13 0 146.66 0L21.33 0C15.45 0 10.66 4.78 10.66 10.66L10.66 146.66C10.66 153.89 16.77 160 23.99 160L136 160C143.22 160 149.33 153.89 149.33 146.66L149.33 24C149.33 22.52 148.13 21.33 146.66 21.33Z" fill="#000000" fill-opacity="1.000000" fill-rule="nonzero"/>
		<path id="path" d="M144 13.33C144 11.86 142.8 10.66 141.33 10.66L56 10.66C54.52 10.66 53.33 11.86 53.33 13.33L53.33 38.89L47.21 32.78C46.17 31.73 44.49 31.73 43.44 32.78L37.33 38.89L37.33 13.33C37.33 11.86 36.13 10.66 34.66 10.66L24 10.66C22.52 10.66 21.33 11.86 21.33 13.33C21.33 14.8 22.52 15.99 24 15.99L32 15.99L32 45.33C32 46.41 32.65 47.38 33.64 47.79C34.64 48.2 35.78 47.98 36.55 47.21L45.33 38.43L54.11 47.21C54.62 47.72 55.3 47.99 55.99 47.99C56.34 47.99 56.69 47.93 57.02 47.79C58.01 47.38 58.66 46.41 58.66 45.33L58.66 15.99L141.33 15.99C142.8 15.99 144 14.8 144 13.33Z" fill="#000000" fill-opacity="1.000000" fill-rule="nonzero"/>
		<path id="path" d="M48 55.99L48 98.66C48 100.13 49.19 101.33 50.66 101.33L109.33 101.33C110.8 101.33 112 100.13 112 98.66L112 55.99C112 54.52 110.8 53.33 109.33 53.33L50.66 53.33C49.19 53.33 48 54.52 48 55.99ZM53.33 58.66L106.66 58.66L106.66 95.99L53.33 95.99L53.33 58.66Z" fill="#000000" fill-opacity="1.000000" fill-rule="nonzero"/>
		<path id="path" d="M93.33 80L66.66 80C65.19 80 64 81.19 64 82.66C64 84.13 65.19 85.33 66.66 85.33L93.33 85.33C94.8 85.33 95.99 84.13 95.99 82.66C95.99 81.19 94.8 80 93.33 80Z" fill="#000000" fill-opacity="1.000000" fill-rule="nonzero"/>
	</g>
</svg>
